<?xml version="1.0" standalone="no"?>
<!DOCTYPE svg PUBLIC "-//W3C//DTD SVG 20010904//EN"
 "http://www.w3.org/TR/2001/REC-SVG-20010904/DTD/svg10.dtd">
<svg version="1.0" xmlns="http://www.w3.org/2000/svg"
 width="752.000000pt" height="752.000000pt" viewBox="0 0 752.000000 752.000000"
 preserveAspectRatio="xMidYMid meet">
<metadata>
Created by potrace 1.14, written by Peter Selinger 2001-2017
</metadata>
<g transform="translate(0.000000,752.000000) scale(0.100000,-0.100000)"
fill="#000000" stroke="none">
<path d="M1775 5866 c-60 -28 -97 -66 -124 -126 -20 -45 -21 -55 -21 -1968 0
-1370 3 -1936 11 -1967 15 -58 71 -122 133 -151 l51 -24 1923 0 c1370 0 1936
3 1967 11 54 14 118 67 148 123 l22 41 3 1940 c2 1781 1 1944 -14 1984 -23 60
-70 110 -129 137 l-50 24 -1935 0 -1935 0 -50 -24z m1211 -166 l72 0 -2 -617
-1 -618 -617 -1 -618 -2 0 122 c-1 66 -1 337 0 600 0 525 -1 511 59 518 20 2
564 2 1107 -2z m2695 -16 c19 -17 19 -36 17 -618 l-3 -601 -616 -1 -616 -2 1
617 1 616 80 5 c44 3 313 4 598 3 477 -1 520 -3 538 -19z m-1270 -1274 c4 -17
3 -1300 -1 -1301 -17 -4 -1300 -3 -1301 1 -1 3 -2 295 -3 650 -1 504 1 646 11
650 16 7 1293 7 1294 0z m-1355 -1972 l1 -618 -26 0 c-14 -1 -284 -1 -600 -1
-547 0 -575 1 -593 19 -18 17 -19 46 -19 603 0 321 1 591 1 600 0 14 60 16
618 15 l617 -1 1 -617z m2645 258 c1 -883 2 -837 -19 -858 -18 -18 -42 -19
-603 -19 -321 0 -591 0 -600 1 -14 0 -16 63 -16 619 l-1 618 619 0 619 1 1
-362z"/>
</g>
</svg>
